HIERARCHY
ROOT hip
{
	OFFSET 0.000000 0.000000 0.000000 
	CHANNELS 6 Xposition Yposition Zposition Xrotation Zrotation Yrotation
	JOINT abdomen
	{
		OFFSET 0.000000 3.402643 0.000000 
		CHANNELS 3 Xrotation Zrotation Yrotation
		JOINT chest
		{
			OFFSET 0.000000 8.438565 -0.680529 
			CHANNELS 3 Xrotation Zrotation Yrotation
			JOINT neck
			{
				OFFSET 0.000000 10.207942 -0.272212 
				CHANNELS 3 Xrotation Zrotation Yrotation
				JOINT head
				{
					OFFSET 0.000000 3.130431 0.000000 
					CHANNELS 3 Xrotation Zrotation Yrotation
					End Site
					{
						OFFSET 0.000000 3.130435 0.000000 
					}
				}
			}
			JOINT lCollar
			{
				OFFSET 3.470700 6.669187 -0.816635 
				CHANNELS 3 Yrotation Zrotation Xrotation
				JOINT lShldr
				{
					OFFSET 3.198488 0.000000 0.000000 
					CHANNELS 3 Zrotation Yrotation Xrotation
					JOINT lForeArm
					{
						OFFSET 10.139888 0.000000 0.000000 
						CHANNELS 3 Yrotation Zrotation Xrotation
						JOINT lHand
						{
							OFFSET 8.370511 0.000000 0.000000 
							CHANNELS 3 Zrotation Yrotation Xrotation
							End Site
							{
								OFFSET 4.083176 0.000000 0.000000 
							}
						}
					}
				}
			}
			JOINT rCollar
			{
				OFFSET -3.470700 6.669187 -0.816635 
				CHANNELS 3 Yrotation Zrotation Xrotation
				JOINT rShldr
				{
					OFFSET -3.198488 0.000000 0.000000 
					CHANNELS 3 Zrotation Yrotation Xrotation
					JOINT rForeArm
					{
						OFFSET -10.139888 0.000000 0.000000 
						CHANNELS 3 Yrotation Zrotation Xrotation
						JOINT rHand
						{
							OFFSET -8.370511 0.000000 0.000000 
							CHANNELS 3 Zrotation Yrotation Xrotation
							End Site
							{
								OFFSET -4.083176 0.000000 0.000000 
							}
						}
					}
				}
			}
		}
	}
	JOINT lThigh
	{
		OFFSET 5.308129 -1.633274 1.361059 
		CHANNELS 3 Xrotation Zrotation Yrotation
		JOINT lShin
		{
			OFFSET -2.041588 -20.007561 0.000000 
			CHANNELS 3 Xrotation Zrotation Yrotation
			JOINT lFoot
			{
				OFFSET 0.000000 -19.190928 -1.224953 
				CHANNELS 3 Xrotation Yrotation Zrotation
				End Site
				{
					OFFSET 0.000000 -2.449906 4.627600 
				}
			}
		}
	}
	JOINT rThigh
	{
		OFFSET -5.308129 -1.633274 1.361059 
		CHANNELS 3 Xrotation Zrotation Yrotation
		JOINT rShin
		{
			OFFSET 2.041588 -20.007561 0.000000 
			CHANNELS 3 Xrotation Zrotation Yrotation
			JOINT rFoot
			{
				OFFSET 0.000000 -19.190928 -1.224953 
				CHANNELS 3 Xrotation Yrotation Zrotation
				End Site
				{
					OFFSET 0.000000 -2.449906 4.627600 
				}
			}
		}
	}
}
MOTION
Frames: 8
Frame Time: 0.033333
-12.438882 44.240040 -40.275620 2.978516 -8.623047 42.879395 21.279297 3.935547 2.168639 -15.097657 2.578125 1.103516 -2.500000 -5.205078 -22.832916 6.328125 11.445313 -23.357435 2.988281 0.966797 -0.068359 -66.845703 -3.789063 37.968105 -57.158203 -1.904297 -3.964520 1.640625 -11.406251 -0.253906 -1.210938 4.658204 -0.273438 64.101563 5.947266 -6.620082 46.337891 2.744141 -24.990702 -12.187499 18.261719 -3.356313 -26.694538 24.917599 1.118088 53.516945 -0.258119 -3.514307 -18.832487 3.654006 -3.894064 -44.237045 -9.657818 -8.339796 61.242401 -0.546715 2.931669 -16.154881 -13.013254 1.167313 
-12.455100 44.061417 -40.153397 2.636719 -8.261655 41.102337 21.806641 3.876953 2.334645 -14.921875 2.216797 1.279297 -2.558594 -4.960938 -21.973503 5.976563 11.259766 -22.666018 2.812500 0.966797 -0.058759 -66.796875 -4.648438 38.632023 -57.939457 -1.826172 -5.224609 2.167969 -10.351563 -0.284958 -1.035156 4.658203 -0.283203 64.150383 7.060547 -6.396485 46.542973 2.666016 -23.174284 -11.865234 16.542969 -3.125000 -29.238277 24.843742 -1.267215 59.140728 -0.082807 -3.346403 -15.828089 3.724638 -4.105018 -44.328522 -8.757700 -7.239971 61.944305 -0.722483 3.363965 -16.277388 -12.766930 1.103151 
-12.383079 43.883392 -40.157570 2.460938 -7.744140 38.641266 22.148439 3.818360 2.500650 -14.746092 2.216797 1.455456 -2.626953 -5.234375 -21.074219 5.800781 11.083984 -21.796877 2.812500 0.791016 -0.048963 -67.343750 -5.937500 39.082035 -58.164059 -1.933594 -5.771155 2.167969 -9.824219 -0.283203 -1.035156 4.482422 -0.292969 63.955078 8.916017 -5.976563 46.416019 2.617188 -21.230913 -11.699220 15.029297 -2.744141 -31.927422 24.361208 -3.129272 64.226524 0.248330 -3.582075 -16.246790 2.733624 -4.466244 -44.785381 -7.920242 -5.815265 62.655895 -0.719805 3.415062 -15.926816 -11.553560 1.219267 
-12.215305 43.724922 -40.302925 2.275390 -7.207030 35.683594 22.675783 3.759766 2.666656 -14.746093 1.865234 1.631168 -2.539063 -5.302735 -19.815355 5.625000 10.732421 -20.564589 2.460938 0.791016 -0.048828 -68.154297 -7.324219 39.619144 -57.988277 -1.953125 -5.761386 1.816406 -10.000001 -0.263672 -0.859375 4.482433 -0.303497 63.769527 10.908204 -5.703125 46.914063 2.500000 -19.648863 -11.025392 13.535157 -2.333984 -34.161442 22.934689 -4.350378 68.073296 0.920710 -3.684905 -17.527735 -0.417231 -5.426743 -45.464760 -6.679534 -4.158051 63.170643 -0.704103 3.252904 -15.628487 -10.707639 1.736418 
-11.918514 43.595188 -40.585293 2.275391 -6.689453 32.166832 23.017576 3.701171 2.812500 -14.570313 1.513672 1.640625 -2.294922 -5.517578 -18.193357 5.449219 10.380859 -18.992382 2.285156 0.791016 -0.048828 -69.052734 -9.189452 41.054688 -58.193363 -1.972656 -6.162110 2.705078 -9.824219 -0.314166 -0.859375 4.130859 -0.312500 63.906250 13.017577 -5.781249 47.568359 2.509766 -17.705507 -9.404297 10.869141 -1.542969 -35.634964 21.050186 -5.601767 69.649338 1.096625 -3.981926 -18.764854 -4.468536 -6.981864 -45.968887 -5.810272 -1.539188 63.187939 -0.557514 3.166085 -14.548741 -9.515009 2.863407 
-11.496878 43.511715 -41.003700 2.275391 -5.986328 27.948198 23.369143 3.701171 2.813131 -14.570312 1.162109 1.631058 -2.050781 -5.527344 -16.436487 5.097656 9.677735 -17.255859 2.109375 0.791011 -0.039197 -70.136719 -11.064454 42.187504 -58.808590 -1.806641 -4.989926 2.695313 -8.945313 -0.314019 -0.683594 3.955078 -0.322266 64.072266 15.214844 -4.677734 48.183594 2.333985 -15.507813 -8.417969 8.652344 -1.123047 -36.329670 18.414825 -6.901299 68.943741 0.940129 -3.911751 -19.996445 -8.037949 -8.185445 -46.594509 -4.911682 0.518743 62.802231 -0.722783 3.419526 -13.726248 -7.734682 3.041609 
-10.949203 43.469505 -41.539810 2.460938 -5.458984 23.182663 23.720703 3.535156 2.753906 -14.746093 0.810547 1.630997 -1.845703 -5.673828 -14.112293 4.746094 8.974610 -14.980470 1.757813 0.966797 -0.039227 -71.152344 -13.417968 44.128593 -59.150387 -1.923828 -4.902016 2.519531 -8.242188 -0.294369 -0.507813 3.603516 -0.332031 64.199219 17.470703 -2.399411 49.179688 2.236328 -14.170303 -8.203126 7.089843 -0.947266 -36.650539 15.427002 -8.745256 67.356537 0.939923 -4.018541 -21.854294 -9.429734 -9.066942 -47.438606 -3.720474 2.973936 61.926472 -0.818944 3.501087 -12.545843 -5.804204 3.697697 
-10.292065 43.457226 -42.189079 2.812500 -4.755859 17.557783 24.062500 3.369141 2.695887 -14.755858 0.634766 1.630968 -1.630859 -5.791016 -11.622080 4.394532 8.271484 -12.527893 1.582031 1.142573 -0.049023 -71.679688 -15.664061 47.536427 -59.638672 -1.757813 -4.364935 4.648438 -8.046876 -0.597070 -0.527344 3.066406 -0.166016 64.287117 19.931641 0.950596 50.908203 2.187500 -14.092170 -7.988281 5.712890 -0.760747 -36.667667 13.153881 -9.879207 65.794472 0.775042 -3.853560 -22.831915 -10.532148 -9.851421 -48.040829 -2.325073 7.082693 60.337917 -0.630044 3.532200 -10.945683 -4.063878 4.045997 
